<?xml version="1.0" encoding="UTF-8"?>
<!DOCTYPE svg PUBLIC "-//W3C//DTD SVG 1.1//EN" "http://www.w3.org/Graphics/SVG/1.1/DTD/svg11.dtd">
<!-- Creator: CorelDRAW X5 -->
<svg xmlns="http://www.w3.org/2000/svg" xml:space="preserve" width="74.2536mm" height="67.1523mm" shape-rendering="geometricPrecision" text-rendering="geometricPrecision" image-rendering="optimizeQuality" fill-rule="evenodd" clip-rule="evenodd"
viewBox="0 0 3029 2739"
 xmlns:xlink="http://www.w3.org/1999/xlink">
 <g id="Réteg_x0020_1">
  <metadata id="CorelCorpID_0Corel-Layer"/>
  <path fill="none" stroke="red" stroke-width="3.10852" d="M109 2125c-13,4 -17,5 -20,-10 -8,-43 9,-178 39,-248 10,-2 41,-6 49,-5 11,0 46,5 55,9 28,-12 40,-23 57,-40 18,-18 27,-34 39,-54l45 21c0,0 19,11 39,11 92,0 201,-119 266,-270l0 1c14,7 91,44 142,44 98,0 197,-77 234,-144l1 -5c-13,-19 -32,-128 -32,-157 0,-49 16,-101 45,-149 -26,-18 -44,-27 -77,-26 -63,2 -117,47 -182,93 -46,32 -114,81 -182,81 -67,0 -141,-30 -190,-54 -31,-15 -81,-39 -123,-39 -26,0 -66,23 -91,42 -38,30 -76,38 -103,39 -69,2 -123,-85 -118,-146 27,36 73,69 109,70 25,1 41,-5 86,-52 61,-64 75,-74 140,-74 48,0 80,13 93,21 10,6 20,14 71,14 51,0 76,-24 116,-62 81,-77 130,-79 207,-79 148,0 228,72 284,117 82,-97 215,-148 341,-148 57,0 132,12 184,37 19,45 104,57 160,57 51,0 136,-12 168,-56 -24,-47 -88,-132 -200,-135 -63,-1 -78,22 -76,74 -16,-13 -29,-29 -29,-47 0,-19 8,-56 32,-72 -10,-5 -30,-10 -47,-8 -21,0 -51,4 -60,-31 23,0 49,-1 59,-25 -20,0 -43,-5 -66,-4 -25,1 -37,13 -41,24 -15,-5 -24,-21 -24,-36 0,-26 52,-39 75,-44 13,-3 15,-5 13,-16 -67,0 -177,-38 -162,-88 20,15 91,16 104,15 7,-1 10,-4 10,-10 0,-6 -3,-5 -14,-5 -73,0 -125,-28 -155,-68 -13,-17 -34,-52 -61,-53 -3,0 -15,2 -21,6 3,-27 23,-27 32,-27 12,1 26,5 37,14 31,25 79,29 117,26 -94,-25 -156,-59 -156,-163 28,45 86,68 157,68 -52,-26 -131,-55 -131,-128 0,-24 22,-57 38,-60 2,10 -17,74 77,74 29,0 38,-2 72,-26 108,-75 270,-146 439,-146 5,-9 -7,-61 -13,-70 54,-6 99,46 113,74 52,10 86,26 130,54 22,13 54,31 79,33 52,65 167,178 306,192 11,0 18,70 18,83 0,8 -4,26 -13,33l-27 14c-44,-29 -124,-46 -140,-46 -16,0 -36,7 -36,16 0,8 11,6 24,8 55,5 82,19 102,37 14,13 10,31 0,39 -45,34 -82,40 -82,40 -61,-56 -136,-87 -200,-86 -66,1 -86,12 -118,30 173,-5 320,72 418,165 64,61 134,152 173,263l51 -107c10,-19 22,-63 103,-63 80,0 132,42 132,182 0,52 -5,47 -5,98 0,51 32,59 30,234 -2,152 -47,104 -47,296 0,39 10,35 10,59 0,72 -70,119 -128,136 -8,25 -52,85 -89,96 -11,3 -18,-1 -23,-8 -2,-3 -16,-53 -16,-128 0,-44 4,-103 6,-120 29,0 58,0 87,0 19,0 29,-9 29,-25 0,-16 -8,-26 -17,-31 -17,-11 -33,-22 -51,-33 35,-35 116,-111 56,-162 -17,44 -31,60 -65,97 -43,46 -56,37 -80,63 -24,27 -61,99 -126,149 -111,85 -173,95 -214,94 -43,-1 -76,-45 -76,-86 0,-29 17,-60 29,-68 8,-5 10,-16 9,-25 -70,41 -366,63 -417,63 -77,0 -246,-17 -276,-24l27 66c-49,7 -83,7 -106,7 -24,0 -136,-10 -168,-15 -69,128 -227,140 -295,140 -95,0 -232,-40 -290,-71 -35,40 -109,96 -172,125 -71,32 -153,53 -256,51 -4,29 -117,104 -151,112 -10,20 -88,70 -111,76z"/>
  <path fill="none" stroke="red" stroke-width="3.10852" d="M1642 2738c-546,-4 -1029,-305 -1255,-770 47,-1 83,-4 118,-10 216,400 647,674 1130,674 501,0 944,-294 1151,-719 37,-11 73,-67 89,-97 30,-4 83,-41 99,-60 -180,588 -732,986 -1332,982z"/>
  <path fill="none" stroke="red" stroke-width="3.10852" d="M425 1775c-43,-125 -67,-259 -67,-398 0,-52 3,-104 9,-154l1 0c-17,-7 -42,-10 -59,-10 -17,0 -35,8 -51,17l-1 1c-4,46 -7,93 -6,140 0,134 19,262 54,382l0 1 9 -15 45 20c24,12 45,22 66,17l0 -1z"/>
  <path fill="none" stroke="red" stroke-width="3.10852" d="M1643 104c20,0 40,3 40,3 76,-33 158,-55 241,-62 -93,-27 -219,-41 -282,-41 -655,0 -1205,430 -1352,1036 28,-10 88,-7 110,0 156,-555 668,-936 1243,-936z"/>
 </g>
</svg>
