<?xml version="1.0" encoding="UTF-8"?>
<!DOCTYPE svg PUBLIC "-//W3C//DTD SVG 1.1//EN" "http://www.w3.org/Graphics/SVG/1.1/DTD/svg11.dtd">
<!-- Creator: CorelDRAW X5 -->
<svg xmlns="http://www.w3.org/2000/svg" xml:space="preserve" width="99.3094mm" height="72.3709mm" shape-rendering="geometricPrecision" text-rendering="geometricPrecision" image-rendering="optimizeQuality" fill-rule="evenodd" clip-rule="evenodd"
viewBox="0 0 5000 3644"
 xmlns:xlink="http://www.w3.org/1999/xlink">
 <g id="Réteg_x0020_1">
  <metadata id="CorelCorpID_0Corel-Layer"/>
  <path fill="none" stroke="red" stroke-width="12.5877" d="M4415 1708c418,226 644,893 248,1376 24,-363 -45,-889 -672,-849 35,8 79,78 93,100 -170,5 -218,-6 -393,38 -103,26 -386,43 -451,37 155,-54 350,-92 485,-165 -72,-22 -226,-7 -301,1 -92,10 -222,4 -316,7 -222,5 -485,34 -746,173 77,-109 245,-145 358,-222 -333,7 -560,170 -617,474 201,-229 824,-364 1123,-349 -115,65 -182,90 -285,96 84,49 227,55 272,91 75,61 107,168 215,225 6,-43 -22,-111 -31,-134 22,5 135,120 161,145 48,45 90,86 135,134 146,158 240,285 340,477 13,26 66,137 101,175 -164,-32 -312,-279 -408,-394 -127,-152 -376,-386 -620,-490 -97,-41 -178,-40 -273,-38 44,25 465,313 429,732 -104,-114 -152,-503 -363,-566 75,168 208,322 184,499 -37,-109 -99,-209 -200,-293 72,204 173,379 215,612 50,-105 59,-165 50,-279 62,84 101,119 122,217 142,-324 11,-623 -212,-819 122,21 256,161 402,286 87,75 132,126 205,210 69,79 129,165 201,239 61,62 186,180 319,184 50,2 40,-171 26,-268 244,133 497,184 773,123 -120,-65 -283,-157 -327,-188 -105,-75 -176,-146 -246,-268 -60,-106 -111,-230 -175,-333 -34,-55 -64,-103 -102,-155 -19,-27 -104,-131 -108,-145 635,-22 603,466 570,797 498,-357 410,-1112 -38,-1503 -45,-33 -29,-19 -49,-77 -93,-284 -133,-338 -295,-348 154,116 154,172 246,393 -95,-64 -122,-195 -248,-222 45,71 107,133 103,223 -72,-115 -569,-337 -724,-347 141,137 468,217 659,370 -195,37 -327,183 -509,277 -365,190 -486,-29 -781,-78 19,233 143,348 422,296 -129,-33 -287,-102 -302,-181 222,119 415,147 541,108 167,-52 290,-185 572,-332 92,-48 107,-25 211,3l13 -73zm96 1568c105,118 181,125 297,183 -209,1 -422,-79 -484,-109 -109,-52 -223,-139 -323,-251 -110,-122 -416,-413 -413,-578 34,11 146,175 188,196 -15,-137 -101,-205 -130,-250 148,9 328,167 412,326 15,-147 -122,-288 -249,-328 184,-62 267,132 349,261 118,187 199,385 353,549zm-615 -434c111,198 311,425 534,453 -115,-140 -232,-122 -351,-327 -20,-34 -36,-74 -55,-105 -29,-47 -136,-205 -196,-229 24,77 54,184 68,208zm678 -712c-10,-89 -127,-177 -169,-205 -61,-42 -173,-121 -222,-19 161,38 278,136 390,224zm-2014 -1125c-64,-110 -260,-281 -336,-330 39,-6 165,38 214,54 -46,-79 -90,-158 -99,-220 43,11 9,2 69,18 -11,-35 -28,-79 -35,-88 -51,-29 -88,-26 -164,-34 22,78 34,119 56,158l-213 -76 18 69c-129,-37 -209,-162 -298,-208 16,34 27,63 29,75 -70,-37 -310,-170 -604,-175 12,58 68,224 91,271 -227,-43 -301,-143 -477,-203 21,67 101,96 125,134 -85,-2 -255,-74 -369,-54 108,53 259,107 380,151 52,19 258,70 397,108 -7,29 -33,59 -55,67 73,151 334,406 449,490 -136,-17 -262,-11 -312,0 -26,6 -27,12 -21,27 36,89 173,233 259,279 -195,-49 -413,-3 -484,70 93,93 298,196 512,266 214,70 437,107 566,69 -259,-75 -732,-202 -871,-325 174,-26 290,20 620,49 -90,-87 -443,-318 -480,-379 435,-21 437,364 965,391 -68,-26 -335,-219 -373,-246 -235,-164 -448,-351 -604,-596 -72,-113 -173,-298 -202,-427 325,29 538,117 736,242 163,103 277,264 512,370zm-229 -22c-141,-190 -682,-431 -824,-373 40,187 361,526 526,630 -106,-298 -362,-375 -385,-553 209,103 438,220 684,296zm-1674 -310l-78 -93c142,50 347,108 576,80 -202,-60 -643,-198 -831,-197 49,83 110,196 333,210zm-238 214c-64,-45 -121,-66 -178,-80 118,-35 490,22 588,-32 -113,-52 -521,-92 -817,-38 81,116 240,140 407,150zm2633 477c-17,-35 -152,-150 -160,-182 223,31 558,219 690,294 -191,-248 -586,-389 -820,-372 43,139 121,232 290,260zm-361 289c-29,15 -58,40 -94,45 26,25 186,46 307,-11 -96,-45 -652,-377 -745,-427 54,167 270,273 533,393zm-1302 -598c-193,-108 -400,-158 -606,-152 -200,6 -463,55 -588,171 40,11 421,-109 886,-58 -154,60 -490,50 -696,139 163,27 371,21 595,-14 134,-21 277,-64 410,-86zm-244 666c-195,-26 -476,-50 -669,-17 51,20 133,36 199,45 -27,15 -67,52 -87,92 89,-25 171,-56 270,-75 55,-11 258,-32 287,-45zm909 348c-33,-14 -755,31 -1033,16 58,-58 394,-151 458,-243 -359,5 -614,195 -739,366 184,-8 1146,-7 1314,-138zm397 86c-273,12 -434,182 -640,345 7,-46 49,-206 60,-253 -141,118 -195,301 -169,457 313,-270 350,-308 748,-549zm-880 170c-117,15 -233,53 -335,69 39,13 99,16 143,18 -12,26 -52,79 -65,137 86,-93 195,-186 257,-225zm1058 -226c-33,-46 -97,-42 -145,-64 140,-52 249,-35 359,-103 -219,-22 -435,3 -512,89 39,87 222,112 297,77zm213 1510c79,-132 40,-748 -117,-835 14,59 94,516 77,645 -84,-169 -114,-340 -202,-443l-52 266 -169 -234c-10,118 70,264 74,359 -81,-61 -193,-251 -290,-352 35,270 188,452 345,563 47,-41 124,-244 131,-337 58,129 95,351 203,369zm1250 -2392c40,-10 95,-23 109,-57 84,-209 184,-342 326,-499 44,-49 127,-127 108,-148 -23,-26 -83,6 -117,10 -27,-55 -121,-94 -216,-61 -46,16 -75,45 -93,67 -51,-26 -99,-29 -150,18 17,-184 -61,-265 -271,-225 15,-80 25,-130 -21,-197 -54,-80 -143,-98 -212,-75 -93,31 -117,130 -228,57 -83,-55 -162,-53 -224,26 -42,54 -21,121 -14,153 -199,7 -219,234 -163,346 -56,4 -134,-24 -163,-59 225,-238 -32,-432 -116,-422 2,-84 -125,-196 -251,-93 -26,-28 -76,-50 -145,-50 127,226 263,432 274,783 528,334 1169,532 1566,430zm-1520 -458c-11,-217 -23,-284 -112,-495 -17,-41 -56,-105 -88,-168 28,10 131,108 161,147 179,-146 395,300 76,307 -13,147 143,248 269,277 186,43 311,-49 396,-135 -96,-12 -136,11 -222,-39 -117,-68 -114,-190 -59,-260 80,-102 192,-48 269,29 -16,-139 8,-288 185,-251 63,13 122,53 136,110 19,77 -24,154 -39,190 184,-65 342,37 305,204 -47,216 -292,132 -375,47 -78,334 540,426 662,170 -91,-21 -230,-104 -99,-268 127,-158 253,24 285,40 17,-9 26,-21 42,-33 16,-12 28,-18 46,-28 35,-19 76,-31 122,-31 -20,26 -125,118 -191,201 -73,91 -137,189 -184,308 -8,20 -12,54 -33,63 -576,112 -1231,-209 -1551,-384zm537 1015c419,443 755,0 1015,-92 -282,-32 -360,-43 -622,-190 -55,-31 -231,-123 -283,-145 22,40 57,107 61,114 -71,6 -83,-9 -150,-14 -44,-3 -35,16 -86,6 -177,-35 -210,-147 -377,-174 29,42 105,136 175,174 -119,-11 -401,-221 -486,-315 105,49 185,110 337,76 -91,-60 -443,-197 -561,-234 140,287 503,508 683,558 121,34 203,-41 271,52 182,250 361,377 717,214m-667 -293c13,-1 170,9 209,12 40,187 154,215 336,168 67,-17 75,12 130,26l15 6c-187,125 -463,141 -690,-213zm261 0c57,11 148,80 163,147 -79,-6 -157,-56 -163,-147zm-2209 -279c-100,-10 -286,-28 -449,18 -165,46 -311,138 -376,189 123,0 252,-64 380,-94 152,-35 308,-53 444,-113z"/>
 </g>
</svg>
