<?xml version="1.0" encoding="UTF-8"?>
<!DOCTYPE svg PUBLIC "-//W3C//DTD SVG 1.1//EN" "http://www.w3.org/Graphics/SVG/1.1/DTD/svg11.dtd">
<!-- Creator: CorelDRAW X5 -->
<svg xmlns="http://www.w3.org/2000/svg" xml:space="preserve" width="102.168mm" height="90.3316mm" shape-rendering="geometricPrecision" text-rendering="geometricPrecision" image-rendering="optimizeQuality" fill-rule="evenodd" clip-rule="evenodd"
viewBox="0 0 35178 31102"
 xmlns:xlink="http://www.w3.org/1999/xlink">
 <g id="Réteg_x0020_1">
  <metadata id="CorelCorpID_0Corel-Layer"/>
  <g id="_701813736">
   <path fill="none" stroke="red" stroke-width="86.0775" d="M29215 3139c312,331 468,496 468,496 -341,400 -516,602 -524,606"/>
   <path fill="none" stroke="red" stroke-width="86.0775" d="M28912 1909c154,-20 255,56 303,230 56,1628 -51,2636 -321,3022 -413,293 -912,388 -1497,285 86,-2125 129,-3187 129,-3187 84,-154 194,-246 331,-276 704,-49 1056,-73 1056,-73z"/>
   <path fill="none" stroke="red" stroke-width="86.0775" d="M28333 1949c64,-707 -61,-999 -377,-876 -288,171 -432,257 -432,257 -932,603 -1526,1136 -1782,1598"/>
   <path fill="none" stroke="red" stroke-width="86.0775" d="M27525 1330c-779,185 -1395,442 -1846,771"/>
   <path fill="none" stroke="red" stroke-width="86.0775" d="M26360 1713c-255,-183 -473,-298 -654,-346"/>
   <path fill="none" stroke="red" stroke-width="86.0775" d="M26873 1781c339,203 566,347 679,431"/>
   <path fill="none" stroke="red" stroke-width="86.0775" d="M27451 4077c-1022,-631 -1647,-983 -1874,-1057"/>
   <path fill="none" stroke="red" stroke-width="86.0775" d="M25532 5050c0,0 9,-591 28,-1773 -1,-1202 81,-2035 248,-2498 60,-427 -75,-672 -404,-735 -362,-19 -567,214 -615,698 -140,1732 -208,3180 -202,4344"/>
   <path fill="none" stroke="red" stroke-width="86.0775" d="M25807 779c-350,539 -690,526 -1020,-37"/>
   <path fill="none" stroke="red" stroke-width="86.0775" d="M25835 6212c-700,-68 -1276,-48 -1727,60 -45,-403 -3,-730 129,-983 510,-332 1041,-355 1594,-69 29,684 30,1015 5,992 361,127 511,349 450,666"/>
   <path fill="none" stroke="red" stroke-width="86.0775" d="M26285 6877c-953,-284 -2018,-241 -3196,129 66,-388 406,-633 1019,-735"/>
   <path fill="none" stroke="red" stroke-width="86.0775" d="M26135 6836c39,4424 58,6636 58,6636"/>
   <path fill="none" stroke="red" stroke-width="86.0775" d="M23089 7006c-12,1102 -18,1653 -18,1653"/>
   <path fill="none" stroke="red" stroke-width="86.0775" d="M23052 10055c37,1127 55,1690 55,1690"/>
   <path fill="none" stroke="red" stroke-width="86.0775" d="M26193 13472c-845,24 -1267,37 -1267,37"/>
   <path fill="none" stroke="red" stroke-width="86.0775" d="M25725 21637c187,94 419,69 698,-73 101,-1576 -33,-3248 -404,-5015 -765,-2637 -2146,-4208 -4142,-4712 -1163,-491 -2801,-567 -4914,-230 -708,231 -341,568 1102,1010 -437,103 -698,241 -781,413"/>
   <path fill="none" stroke="red" stroke-width="86.0775" d="M27461 17826c-625,171 -937,257 -937,257 -206,-1728 -610,-3045 -1212,-3949 -844,-1424 -1934,-2343 -3270,-2755 -2536,-488 -4326,-363 -5371,377"/>
   <path fill="none" stroke="red" stroke-width="86.0775" d="M19286 23685c1055,-52 1557,-1019 1506,-2902 -677,-1119 -1443,-1076 -2296,129 -397,1778 -134,2702 790,2774z"/>
   <path fill="none" stroke="red" stroke-width="86.0775" d="M19737 20489c-107,0 -193,136 -193,303 0,167 86,303 193,303 107,0 193,-136 193,-303 0,-167 -86,-303 -193,-303z"/>
   <path fill="none" stroke="red" stroke-width="86.0775" d="M20251 21830c-96,0 -174,119 -174,266 0,147 78,266 174,266 96,0 174,-119 174,-266 0,-147 -78,-266 -174,-266z"/>
   <path fill="none" stroke="red" stroke-width="86.0775" d="M19140 22271c-102,0 -184,119 -184,266 0,147 82,266 184,266 101,0 184,-119 184,-266 0,-147 -82,-266 -184,-266z"/>
   <path fill="none" stroke="red" stroke-width="86.0775" d="M19911 27800c-2103,-300 -2886,-2608 -2351,-6925 969,-2867 2224,-4269 3766,-4207 1323,-32 2260,1107 2811,3417 168,2437 -217,4371 -1157,5805 -885,1293 -1908,1930 -3068,1910z"/>
   <path fill="none" stroke="red" stroke-width="86.0775" d="M19397 17770c950,581 1415,1585 1396,3013"/>
   <path fill="none" stroke="red" stroke-width="86.0775" d="M20262 23215c-444,1482 -1274,2384 -2489,2703"/>
   <path fill="none" stroke="red" stroke-width="86.0775" d="M19642 23627c-614,1237 -1278,1870 -1992,1900"/>
   <path fill="none" stroke="red" stroke-width="86.0775" d="M20058 17238c1824,226 2706,1690 2645,4390 -859,4221 -2414,5847 -4665,4880"/>
   <path fill="none" stroke="red" stroke-width="86.0775" d="M20572 17017c1600,257 2463,1562 2590,3913 115,2773 -877,4770 -2976,5988 -618,202 -1224,171 -1819,-92"/>
   <path fill="none" stroke="red" stroke-width="86.0775" d="M22502 13766c-607,-700 -2117,-982 -4529,-845 2316,-4 3647,305 3995,928 -10,313 -32,567 -64,762 -362,115 -610,115 -744,0 -102,-383 -142,-729 -119,-1038 -946,-605 -2590,-618 -4932,-37 -43,141 -64,211 -64,211 1938,-535 3451,-584 4537,-147 -30,621 -91,1001 -184,1139 -172,173 -396,238 -670,193 -180,-323 -358,-654 -533,-992 -1618,-326 -3207,7 -4767,1001 43,184 64,276 64,276 1476,-992 2967,-1344 4473,-1056 -13,918 -19,1381 -18,1387 -426,308 -628,470 -606,487 -429,-453 -643,-680 -643,-680 -1696,-220 -3352,395 -4969,1846 61,312 92,468 92,468 1134,-1238 2622,-1908 4464,-2011 163,830 243,1375 239,1635 -288,367 -432,551 -432,551 -569,-312 -854,-468 -854,-468 -2416,544 -3919,1557 -4510,3040 171,263 257,395 257,395 555,-1423 1838,-2351 3848,-2783 367,814 551,1222 551,1222 -240,553 -372,817 -395,790 -490,-58 -738,-86 -744,-83 -2350,1182 -3642,2315 -3876,3398 380,367 569,551 569,551 465,-1482 1432,-2413 2902,-2792 563,539 845,808 845,808 -61,612 -92,918 -92,918 -625,404 -937,606 -937,606 -1648,942 -2656,1956 -3022,3040 367,361 551,542 551,542 505,-985 1273,-1900 2305,-2746 667,196 1001,294 1001,294 216,573 302,846 257,817 -635,795 -963,1178 -983,1148 -1178,941 -1882,1755 -2112,2443 429,220 643,331 643,331 539,-935 1084,-1578 1635,-1929 218,-170 604,-219 1157,-147 208,269 312,404 312,404 -302,726 -553,1216 -753,1470 -772,723 -1157,1084 -1157,1084 343,269 514,404 514,404 649,-649 974,-974 974,-974 348,-337 721,-521 1121,-551 269,196 404,294 404,294 -222,717 -320,1188 -294,1414 245,80 367,120 367,120 459,-506 759,-773 900,-799 392,61 588,92 588,92 -80,533 -119,799 -119,799 343,12 514,18 514,18 293,-461 672,-752 1139,-873 24,522 -12,822 -110,900 159,-18 239,-28 239,-28 431,-833 890,-1405 1378,-1718 24,453 37,680 37,680 227,-141 340,-211 340,-211 171,-1018 477,-1624 919,-1819 135,282 202,423 202,423 208,-171 312,-257 312,-257 -61,-976 74,-1594 404,-1855 208,61 312,92 312,92 123,-220 184,-331 184,-331 -245,-880 -205,-1511 119,-1892 214,104 321,156 321,156 159,-245 239,-367 239,-367 -73,-293 -174,-517 -303,-670 88,-611 134,-997 138,-1157 251,-127 383,-277 394,-450 20,-256 -117,-461 -413,-616 17,-331 14,-573 -9,-726 282,-282 423,-423 423,-423 -24,-337 -37,-505 -37,-505 -205,-96 -376,-157 -514,-184 -39,-400 -76,-654 -110,-762 208,-337 312,-505 312,-505 -43,-288 -64,-432 -64,-432 -307,-273 -595,-484 -863,-634 165,-441 248,-661 248,-661 -101,-453 -285,-710 -551,-772 -215,4 -377,-67 -487,-211 201,-670 -184,-1151 -1157,-1442z"/>
   <path fill="none" stroke="red" stroke-width="86.0775" d="M20490 31042c-6117,-8 -6695,-680 -8679,-2466 -717,-623 -1191,-1596 -1424,-2921 -346,-328 -567,-1036 -661,-2122 0,0 156,-86 468,-257 -414,-755 -534,-1602 -358,-2543 0,0 196,0 589,0 0,0 52,-159 156,-478 -193,-438 -254,-969 -184,-1591 0,0 74,-172 221,-515 0,0 181,18 543,55 0,0 169,-242 506,-727 0,0 -28,-244 -83,-731 24,-313 178,-562 460,-745 0,0 129,37 386,110 0,0 239,-227 717,-681 0,0 3,-267 9,-800 0,-15 211,-113 635,-294 0,0 85,98 255,294 0,0 243,-140 729,-420 18,1 124,-254 318,-766 0,0 106,-6 318,-19 178,198 389,307 634,327"/>
   <path fill="none" stroke="red" stroke-width="86.0775" d="M15410 13426c-175,564 -260,868 -255,914 -245,0 -367,0 -367,0 -8,-86 -12,-129 -12,-129"/>
   <path fill="none" stroke="red" stroke-width="86.0775" d="M13792 14336c-120,1282 -180,1923 -180,1923 -331,98 -496,147 -496,147 21,-650 32,-975 32,-975"/>
   <path fill="none" stroke="red" stroke-width="86.0775" d="M12044 16001c47,1485 107,2373 181,2664 -229,325 -352,478 -367,459 -101,-401 -164,-950 -191,-1647"/>
   <path fill="none" stroke="red" stroke-width="86.0775" d="M10618 18149c280,1751 589,2964 927,3639 -141,300 -211,450 -211,450 -396,-576 -646,-1237 -752,-1983"/>
   <path fill="none" stroke="red" stroke-width="86.0775" d="M9837 20734c677,2195 1249,3590 1718,4186 -116,325 -174,487 -174,487 -387,-293 -782,-1004 -1185,-2131"/>
   <path fill="none" stroke="red" stroke-width="86.0775" d="M10388 25655c710,1069 1307,1776 1791,2121 -10,354 -29,519 -55,497 -261,-76 -587,-237 -977,-481"/>
   <path fill="none" stroke="red" stroke-width="86.0775" d="M24760 1097c-3361,484 -6118,1304 -8273,2460 271,400 494,694 670,882 -1064,26 -1961,118 -2691,276 12,122 18,184 18,184 771,-9 1323,95 1653,312 706,-176 1217,-195 1534,-55"/>
   <path fill="none" stroke="red" stroke-width="86.0775" d="M17157 4438c392,0 588,0 588,0 -76,1311 -143,2373 -202,3187"/>
   <path fill="none" stroke="red" stroke-width="86.0775" d="M17121 5062c-12,276 -18,414 -18,414 149,193 134,401 -46,625 155,304 127,543 -83,716 -43,527 -64,790 -64,790"/>
   <path fill="none" stroke="red" stroke-width="86.0775" d="M17102 5476c-356,60 -457,265 -303,615 -150,309 -138,557 37,744 -18,502 -28,753 -28,753"/>
   <path fill="none" stroke="red" stroke-width="86.0775" d="M14466 4714c-540,-17 -767,298 -680,946"/>
   <path fill="none" stroke="red" stroke-width="86.0775" d="M14062 7735c0,0 104,-282 312,-845 0,0 18,-493 55,-1479 0,0 -116,-3 -349,-9 -190,245 -285,367 -285,367 -159,594 -239,891 -239,891 67,18 101,28 101,28 -171,492 -226,841 -165,1047"/>
   <path fill="none" stroke="red" stroke-width="86.0775" d="M24654 2693c-2668,154 -4971,736 -6909,1746"/>
   <path fill="none" stroke="red" stroke-width="86.0775" d="M23440 1729c-137,0 -248,119 -248,266 0,147 111,266 248,266 137,0 248,-119 248,-266 0,-147 -111,-266 -248,-266z"/>
   <path fill="none" stroke="red" stroke-width="86.0775" d="M22388 1912c-145,0 -262,144 -262,321 0,178 117,321 262,321 145,0 262,-144 262,-321 0,-177 -117,-321 -262,-321z"/>
   <path fill="none" stroke="red" stroke-width="86.0775" d="M17956 3349c-104,0 -188,116 -188,258 0,143 84,258 188,258 104,0 188,-116 188,-258 0,-143 -84,-258 -188,-258z"/>
   <path fill="none" stroke="red" stroke-width="86.0775" d="M17195 3523c-93,41 -117,188 -55,330 62,142 188,223 280,183 92,-41 117,-188 55,-330 -62,-142 -188,-223 -280,-183z"/>
   <path fill="none" stroke="red" stroke-width="86.0775" d="M23504 3901c-127,0 -230,117 -230,262 0,145 103,262 230,262 127,0 230,-117 230,-262 0,-145 -103,-262 -230,-262z"/>
   <path fill="none" stroke="red" stroke-width="86.0775" d="M23513 4681c-127,0 -230,156 -230,349 0,193 103,349 230,349 127,0 230,-156 230,-349 0,-193 -103,-349 -230,-349z"/>
   <path fill="none" stroke="red" stroke-width="86.0775" d="M24275 5264c-286,-217 -504,-398 -652,-541"/>
   <path fill="none" stroke="red" stroke-width="86.0775" d="M24101 5769c-524,-197 -749,-335 -674,-416"/>
   <path fill="none" stroke="red" stroke-width="86.0775" d="M28343 5420c165,1607 245,2414 240,2420 828,-90 1333,-182 1516,-276 31,-429 31,-631 0,-606 1176,-153 1763,-230 1763,-230 0,269 0,404 0,404 318,6 478,9 478,9 12,514 18,771 18,771 -282,0 -422,0 -422,0 6,404 9,606 9,606 -1182,80 -1773,119 -1773,119 -18,-386 -28,-579 -28,-579 -878,229 -1508,364 -1892,404"/>
   <path fill="none" stroke="red" stroke-width="86.0775" d="M28583 7841c-233,18 -349,28 -349,28 -45,464 -21,661 71,591"/>
   <path fill="none" stroke="red" stroke-width="86.0775" d="M28653 8406c2,242 3,363 3,363 -1380,898 -2185,2196 -2416,3894"/>
   <path fill="none" stroke="red" stroke-width="86.0775" d="M28657 8769c935,259 1666,534 2195,827"/>
   <path fill="none" stroke="red" stroke-width="86.0775" d="M32744 9540c-151,-548 -270,-539 -358,28"/>
   <path fill="none" stroke="red" stroke-width="86.0775" d="M32538 9136c-1101,66 -1851,128 -2249,187"/>
   <path fill="none" stroke="red" stroke-width="86.0775" d="M30990 9540c-991,4 -1811,962 -2462,2875"/>
   <path fill="none" stroke="red" stroke-width="86.0775" d="M28545 12365c-684,-60 -1072,-117 -1165,-171"/>
   <path fill="none" stroke="red" stroke-width="86.0775" d="M26173 11230c726,-161 1110,-38 1151,367 12,716 18,1075 18,1075 -740,-35 -1125,-32 -1157,10"/>
   <path fill="none" stroke="red" stroke-width="86.0775" d="M28721 15299c894,0 1341,0 1341,0 208,-169 349,-451 423,-845 924,-3288 1830,-4807 2719,-4556 1091,549 1728,1700 1910,3453 84,382 -81,547 -496,496"/>
   <path fill="none" stroke="red" stroke-width="86.0775" d="M34389 10987c-374,-923 -883,-1368 -1526,-1337 -882,-74 -1585,1222 -2108,3889"/>
   <path fill="none" stroke="red" stroke-width="86.0775" d="M27461 17826c50,2296 75,3443 75,3443 -742,197 -1113,295 -1113,295"/>
   <path fill="none" stroke="red" stroke-width="86.0775" d="M26193 13472c412,25 621,37 627,36 -43,704 -64,1056 -64,1056 -793,-1 -1190,-2 -1190,-2"/>
   <path fill="none" stroke="red" stroke-width="86.0775" d="M26599 14564c-26,352 -136,600 -331,744 -12,92 -18,138 -18,138 86,18 129,28 129,28 -46,857 -68,1285 -68,1285"/>
   <path fill="none" stroke="red" stroke-width="86.0775" d="M27540 12243c77,6127 116,9191 116,9191 -269,833 -404,1249 -404,1249 723,-245 1084,-367 1084,-367 169,-816 322,-1373 459,-1672 -127,-3074 -145,-5774 -55,-8101 -130,-119 -194,-178 -194,-178"/>
   <path fill="none" stroke="red" stroke-width="86.0775" d="M28692 14363c-793,-42 -1169,-38 -1126,14"/>
   <path fill="none" stroke="red" stroke-width="86.0775" d="M28686 16291c-814,141 -1179,145 -1095,14"/>
   <path fill="none" stroke="red" stroke-width="86.0775" d="M28718 18311c-733,86 -1100,129 -1100,129"/>
   <path fill="none" stroke="red" stroke-width="86.0775" d="M28777 20187c-756,122 -1134,182 -1134,182"/>
   <path fill="none" stroke="red" stroke-width="86.0775" d="M28592 21232c-624,135 -936,202 -936,202"/>
   <path fill="none" stroke="red" stroke-width="86.0775" d="M33534 20470c819,-1659 844,-3725 73,-6200 -526,-606 -991,-563 -1396,129 -775,1944 -784,3931 -28,5961 402,796 852,832 1350,110z"/>
   <path fill="none" stroke="red" stroke-width="86.0775" d="M32664 13908c479,197 815,767 1008,1712 374,2790 55,4570 -957,5340"/>
   <path fill="none" stroke="red" stroke-width="86.0775" d="M32414 20607c841,-455 1212,-1802 1111,-4041 -138,-1507 -482,-2353 -1030,-2537"/>
   <path fill="none" stroke="red" stroke-width="86.0775" d="M32423 14426c528,505 748,1727 661,3665 -76,1115 -382,1857 -916,2225"/>
   <path fill="none" stroke="red" stroke-width="86.0775" d="M33277 11046c-269,29 -391,157 -367,386 -67,6 -101,9 -101,9 -55,-220 -83,-331 -83,-331 -110,24 -165,37 -165,37 8,297 11,446 11,446 -191,39 -287,59 -287,59 -86,-98 -129,-147 -129,-147 -172,129 -257,193 -257,193 31,453 46,680 46,680 -239,-73 -358,-110 -358,-110 -165,245 -248,367 -248,367 135,834 215,1293 239,1378 -285,-243 -457,-424 -514,-542 -141,268 -190,519 -147,753 319,749 408,1230 266,1442 -172,-48 -392,-112 -661,-193 67,478 101,716 101,716 312,401 443,591 395,569 6,361 9,542 9,542 -410,104 -615,156 -615,156"/>
   <path fill="none" stroke="red" stroke-width="86.0775" d="M30467 17443c73,432 109,648 109,648 343,222 511,427 505,615 40,296 -158,495 -597,597 181,494 266,746 257,753 349,-65 558,70 625,404 -6,339 -134,578 -386,716 85,312 125,471 119,478 356,-141 549,-119 579,64 -8,362 -118,674 -331,937 204,184 278,267 220,248 293,-401 529,-535 707,-404 58,143 -28,449 -257,918 122,122 184,184 184,184 344,-614 582,-826 716,-634 -142,377 -246,595 -312,652 128,-7 266,-56 413,-147 83,-348 230,-559 441,-634 -168,300 -238,478 -211,533 235,-226 461,-554 680,-983 -22,307 -43,460 -64,459 223,-331 346,-747 367,-1249 62,54 108,140 138,257 103,-301 176,-794 220,-1479 110,153 165,230 165,230 21,-631 24,-1105 9,-1424 116,6 174,9 174,9 -39,-483 -48,-937 -27,-1359 129,-31 193,-46 193,-46 6,-257 9,-386 9,-386 -150,-278 -227,-602 -230,-974 104,-55 156,-83 156,-83 -12,-263 -18,-395 -18,-395 -159,-208 -239,-312 -239,-312 -37,-202 -55,-303 -55,-303 98,-184 147,-276 147,-276 -18,-288 -28,-432 -28,-432 -171,-202 -257,-303 -257,-303 66,-496 81,-833 46,-1010 -82,-134 -199,-235 -349,-303 56,-345 53,-587 -9,-726 -89,-120 -236,-215 -441,-285 31,-448 -137,-693 -505,-735 -37,-147 -56,-220 -56,-220 -629,-130 -1091,-215 -1386,-253"/>
   <path fill="none" stroke="red" stroke-width="86.0775" d="M32726 11110c-396,-79 -715,-114 -958,-106"/>
   <path fill="none" stroke="red" stroke-width="86.0775" d="M32561 11147c-434,-34 -715,-52 -841,-54"/>
   <path fill="none" stroke="red" stroke-width="86.0775" d="M32156 11505c-409,-76 -610,-105 -602,-85"/>
   <path fill="none" stroke="red" stroke-width="86.0775" d="M31899 11698c-292,-51 -438,-77 -438,-77"/>
   <path fill="none" stroke="red" stroke-width="86.0775" d="M31632 12282c-268,-157 -396,-208 -384,-152"/>
   <path fill="none" stroke="red" stroke-width="86.0775" d="M31347 12687c-192,-118 -283,-151 -273,-99"/>
   <path fill="none" stroke="red" stroke-width="86.0775" d="M31063 13471c-138,-68 -225,-96 -260,-83"/>
   <path fill="none" stroke="red" stroke-width="86.0775" d="M30901 14059c-217,-29 -310,-56 -279,-83"/>
   <path fill="none" stroke="red" stroke-width="86.0775" d="M30540 15522c-1084,835 -1700,1287 -1849,1357"/>
   <path fill="none" stroke="red" stroke-width="86.0775" d="M28700 17467c1282,-851 1923,-1277 1923,-1277"/>
   <path fill="none" stroke="red" stroke-width="86.0775" d="M30495 17443c-1114,891 -1672,1337 -1672,1337"/>
   <path fill="none" stroke="red" stroke-width="86.0775" d="M28752 19506c1216,-944 1824,-1415 1824,-1415"/>
   <path fill="none" stroke="red" stroke-width="86.0775" d="M30501 19347c-968,986 -1625,1694 -1972,2123"/>
   <path fill="none" stroke="red" stroke-width="86.0775" d="M30742 20056c-838,689 -1631,1610 -2084,2397 -193,-118 -319,-350 -293,-277"/>
   <path fill="none" stroke="red" stroke-width="86.0775" d="M30981 21177c-1120,854 -2048,1396 -2250,1625"/>
   <path fill="none" stroke="red" stroke-width="86.0775" d="M31100 21654c-1267,961 -2220,1652 -2220,1652 -6,-251 -149,-504 -149,-504"/>
   <path fill="none" stroke="red" stroke-width="86.0775" d="M31385 22609c-528,395 -1633,745 -2152,827"/>
   <path fill="none" stroke="red" stroke-width="86.0775" d="M29925 23638c374,16 926,-234 1656,-751"/>
   <path fill="none" stroke="red" stroke-width="86.0775" d="M32019 23418c-539,189 -1247,370 -1405,353"/>
   <path fill="none" stroke="red" stroke-width="86.0775" d="M32203 23602c-494,115 -760,221 -872,222"/>
   <path fill="none" stroke="red" stroke-width="86.0775" d="M33250 23372c-1805,997 -4244,163 -5788,-760"/>
   <path fill="none" stroke="red" stroke-width="86.0775" d="M27406 22207c-339,-284 -586,-520 -739,-708"/>
   <path fill="none" stroke="red" stroke-width="86.0775" d="M17543 7625c-3089,78 -4901,171 -5436,280 -4015,695 -6629,1503 -7844,2425 -266,374 -345,796 -239,1267 -186,581 -244,1304 -174,2168 -26,440 -17,681 28,726"/>
   <path fill="none" stroke="red" stroke-width="86.0775" d="M13013 15559c0,0 -1560,45 -4681,134 -27,-265 -192,-467 -496,-606 -46,-197 -126,-497 -239,-900 -3,-746 114,-1420 349,-2021 519,-305 715,-831 588,-1580 1535,-1018 3672,-1747 6411,-2186 460,-169 687,70 680,716 -157,2389 -334,3831 -532,4327"/>
   <path fill="none" stroke="red" stroke-width="86.0775" d="M12296 7874c-3904,903 -5911,1936 -6021,3098 -58,348 -80,614 -64,799 -886,567 -981,1001 -285,1304 -17,1815 -54,2697 -110,2645 -778,-26 -1169,-38 -1176,-37 -505,-798 -761,-1199 -769,-1202"/>
   <path fill="none" stroke="red" stroke-width="86.0775" d="M8268 10577c-970,-107 -1641,67 -2014,525"/>
   <path fill="none" stroke="red" stroke-width="86.0775" d="M7031 10629c-750,945 -553,1405 593,1381"/>
   <path fill="none" stroke="red" stroke-width="86.0775" d="M7818 10807c-246,0 -445,218 -445,487 0,269 199,487 445,487 246,0 445,-218 445,-487 0,-269 -199,-487 -445,-487z"/>
   <path fill="none" stroke="red" stroke-width="86.0775" d="M6387 11922c-180,0 -326,181 -326,404 0,223 146,404 326,404 180,0 326,-181 326,-404 0,-223 -146,-404 -326,-404z"/>
   <path fill="none" stroke="red" stroke-width="86.0775" d="M11621 16541c-2003,43 -3010,63 -3023,61"/>
   <path fill="none" stroke="red" stroke-width="86.0775" d="M7836 15087c-559,186 -651,701 -276,1543 -1721,24 -2581,37 -2581,37 -227,-655 -340,-983 -340,-983"/>
   <path fill="none" stroke="red" stroke-width="86.0775" d="M7561 16630c366,739 562,1467 588,2186"/>
   <path fill="none" stroke="red" stroke-width="86.0775" d="M8145 18742c-233,182 -293,482 -180,900 20,618 204,896 551,836 535,-42 654,-667 358,-1874 -48,-1212 -229,-2182 -542,-2912"/>
   <path fill="none" stroke="red" stroke-width="86.0775" d="M7965 19641c-515,-75 -861,-84 -1038,-27 -194,448 -35,882 478,1304 211,676 220,1252 28,1728"/>
   <path fill="none" stroke="red" stroke-width="86.0775" d="M6857 20108c-869,583 -1360,1239 -1473,1969 392,73 747,251 1065,533 1188,80 1782,119 1782,119 329,320 305,730 -73,1231 -290,221 -621,221 -992,0 -1121,-18 -1681,-28 -1681,-28 -268,116 -544,123 -827,18 -569,-147 -854,-220 -854,-220 -243,-155 -246,-354 -9,-597 586,-608 1135,-957 1647,-1045"/>
   <path fill="none" stroke="red" stroke-width="86.0775" d="M7588 16805c-1061,-31 -1450,548 -1166,1736 585,377 1156,391 1713,43"/>
   <path fill="none" stroke="red" stroke-width="86.0775" d="M6497 18587c-2312,2052 -3252,3617 -2821,4695"/>
   <path fill="none" stroke="red" stroke-width="86.0775" d="M3483 22563c-698,-220 -1047,-331 -1047,-331"/>
   <path fill="none" stroke="red" stroke-width="86.0775" d="M3844 21696c-817,-59 -1225,-88 -1225,-88 -796,429 -1194,643 -1194,643 -236,244 -224,415 37,514 665,233 1403,405 2214,517"/>
   <path fill="none" stroke="red" stroke-width="86.0775" d="M3703 16685c-619,-62 -894,428 -827,1470 -955,1935 -1433,2902 -1433,2902 -216,644 -277,1133 -185,1468"/>
   <path fill="none" stroke="red" stroke-width="86.0775" d="M2932 15151c753,1250 1120,2245 1102,2985 -298,1701 -565,2873 -802,3516"/>
   <path fill="none" stroke="red" stroke-width="86.0775" d="M4034 18136c30,472 149,686 358,643 -37,508 -55,762 -55,762 -369,582 -642,963 -821,1143"/>
   <path fill="none" stroke="red" stroke-width="86.0775" d="M5724 16656c341,1059 312,1971 -87,2734"/>
   <path fill="none" stroke="red" stroke-width="86.0775" d="M5892 18684c-662,74 -1162,105 -1500,95"/>
   <path fill="none" stroke="red" stroke-width="86.0775" d="M3871 14482c-626,446 -939,669 -939,669 -257,12 -386,18 -386,18 171,-153 238,-224 202,-211 -271,-690 -381,-1116 -331,-1277"/>
   <path fill="none" stroke="red" stroke-width="86.0775" d="M3684 14615c-318,-675 -554,-1115 -706,-1319 -93,-1059 -464,-1595 -1111,-1607 -316,73 -405,223 -266,450 368,-83 588,3 661,257 -28,362 -111,564 -248,606 313,208 448,435 404,680"/>
   <path fill="none" stroke="red" stroke-width="86.0775" d="M2546 15170c-112,222 -209,366 -291,432 -247,-116 -370,-175 -370,-175 -383,461 -591,883 -625,1267 -141,-61 -211,-92 -211,-92 -440,354 -630,939 -570,1754 -122,-37 -184,-55 -184,-55 -277,630 -326,1217 -147,1763 -174,796 -94,1409 239,1837 197,1433 1416,2639 3656,3619 2495,620 4448,330 5856,-870"/>
   <path fill="none" stroke="red" stroke-width="86.0775" d="M6708 23952c-1027,965 -1432,1576 -1214,1834"/>
   <path fill="none" stroke="red" stroke-width="86.0775" d="M4355 24290c-408,508 -512,918 -312,1231"/>
   <path fill="none" stroke="red" stroke-width="86.0775" d="M3161 23684c-263,252 -372,662 -327,1230"/>
   <path fill="none" stroke="red" stroke-width="86.0775" d="M2911 23155c-442,712 -604,1213 -486,1505"/>
   <path fill="none" stroke="red" stroke-width="86.0775" d="M1751 22861c-150,438 -153,868 -9,1289"/>
   <path fill="none" stroke="red" stroke-width="86.0775" d="M1367 22719c-59,546 -60,904 -5,1074"/>
   <path fill="none" stroke="red" stroke-width="86.0775" d="M2267 19388c-1150,938 -1763,1855 -1838,2749"/>
   <path fill="none" stroke="red" stroke-width="86.0775" d="M479 18357c-211,761 -195,1563 46,2406"/>
   <path fill="none" stroke="red" stroke-width="86.0775" d="M525 20763c-55,300 -83,450 -83,450 -166,-196 -264,-579 -294,-1148"/>
   <path fill="none" stroke="red" stroke-width="86.0775" d="M1049 16602c-291,744 -361,1442 -211,2094"/>
   <path fill="none" stroke="red" stroke-width="86.0775" d="M824 18637c-175,168 -262,253 -262,253 -39,-139 -67,-317 -83,-533"/>
   <path fill="none" stroke="red" stroke-width="86.0775" d="M1885 15427c-268,684 -363,1137 -285,1359"/>
   <path fill="none" stroke="red" stroke-width="86.0775" d="M1584 16729c-217,205 -331,301 -343,287 12,-214 18,-321 18,-321"/>
   <path fill="none" stroke="red" stroke-width="86.0775" d="M2200 15576c-141,203 -194,401 -160,595 239,-184 358,-276 358,-276 -16,-132 33,-374 147,-726"/>
   <path fill="none" stroke="red" stroke-width="86.0775" d="M3226 16143c-1079,352 -1832,894 -2259,1626 73,171 110,257 110,257 795,-994 1620,-1566 2477,-1716"/>
   <path fill="none" stroke="red" stroke-width="86.0775" d="M2874 17631c-1340,412 -2144,1138 -2413,2177 110,196 165,294 165,294 669,-1271 1419,-1920 2250,-1947"/>
   <path fill="none" stroke="red" stroke-width="86.0775" d="M1773 20390c-680,729 -1063,1453 -1147,2173"/>
   <path fill="none" stroke="red" stroke-width="86.0775" d="M21147 11227c19,-838 -107,-1811 -378,-2918 -1317,-463 -2438,-690 -3362,-680"/>
   <path fill="none" stroke="red" stroke-width="86.0775" d="M17195 12311c-265,171 -544,294 -836,370 -369,-2082 -234,-3453 404,-4115 781,1774 1171,2660 1171,2660"/>
   <path fill="none" stroke="red" stroke-width="86.0775" d="M17284 13031c-445,92 -837,260 -1176,505"/>
   <path fill="none" stroke="red" stroke-width="86.0775" d="M7111 15096c-96,0 -174,204 -174,455 0,251 78,455 174,455 96,0 175,-204 175,-455 0,-251 -78,-455 -175,-455z"/>
   <path fill="none" stroke="red" stroke-width="86.0775" d="M7405 15170c-72,-457 -363,-592 -873,-404 -337,147 -505,220 -505,220 0,423 0,634 0,634 -5,347 102,537 321,569 417,126 769,134 1057,25"/>
   <path fill="none" stroke="red" stroke-width="86.0775" d="M18275 7681c10,-569 109,-1156 298,-1761 41,-290 -42,-508 -248,-652 -1,-89 45,-248 138,-478 272,92 716,264 1332,514 -18,293 230,532 744,716 -388,167 -428,388 -119,661 -315,52 -440,285 -377,698"/>
   <path fill="none" stroke="red" stroke-width="86.0775" d="M19281 7914c0,-123 0,-184 0,-184"/>
   <path fill="none" stroke="red" stroke-width="86.0775" d="M19281 7730c427,-285 852,-438 1277,-459 489,80 768,484 836,1212 -76,1842 -114,2763 -114,2763"/>
   <path fill="none" stroke="red" stroke-width="86.0775" d="M22018 6022c495,85 700,277 615,579 -227,212 -432,316 -615,312 248,116 245,236 -9,358 -162,742 -141,1248 64,1515 281,-817 355,-1359 220,-1626 -121,-160 -69,-255 156,-285 198,-70 281,-21 248,147 -165,12 -248,18 -248,18 39,620 -31,1183 -211,1690"/>
   <path fill="none" stroke="red" stroke-width="86.0775" d="M22693 7712c-160,0 -289,140 -289,312 0,172 129,312 289,312 160,0 289,-140 289,-312 0,-172 -130,-312 -289,-312z"/>
   <path fill="none" stroke="red" stroke-width="86.0775" d="M23080 7776c-241,-223 -451,-263 -629,-120"/>
   <path fill="none" stroke="red" stroke-width="86.0775" d="M23084 8253c-62,157 -142,214 -240,172 13,223 19,334 19,334 586,6 878,10 878,10 368,-388 712,-369 1031,57 -66,537 -437,652 -1111,346 -73,-208 -47,-342 80,-403"/>
   <path fill="none" stroke="red" stroke-width="86.0775" d="M24060 9313c-756,537 -1133,805 -1133,805 -328,-141 -546,-374 -652,-698 92,-441 138,-661 138,-661 301,1 451,1 451,1"/>
   <path fill="none" stroke="red" stroke-width="86.0775" d="M22566 8305c-103,303 -154,454 -154,454"/>
   <path fill="none" stroke="red" stroke-width="86.0775" d="M22530 8412c-68,-22 -123,-67 -163,-135"/>
   <path fill="none" stroke="red" stroke-width="86.0775" d="M24101 5769c-238,46 -357,68 -357,68 33,310 -28,473 -184,487 -148,-68 -203,-200 -165,-395 -292,-169 -564,-160 -817,28 -159,-70 -266,-134 -321,-193 -198,30 -278,116 -239,257"/>
   <path fill="none" stroke="red" stroke-width="86.0775" d="M22238 6325c302,128 300,243 -5,344 -1,-110 0,-225 5,-344z"/>
   <path fill="none" stroke="red" stroke-width="86.0775" d="M20612 6270c-216,85 -215,144 5,179 0,-3 -1,-63 -5,-179z"/>
   <path fill="none" stroke="red" stroke-width="86.0775" d="M27313 4919c-245,86 -367,129 -367,129 190,305 168,501 -64,588 -418,68 -764,31 -1039,-110"/>
   <path fill="none" stroke="red" stroke-width="86.0775" d="M27462 5456c-49,1597 51,2940 300,4028"/>
   <path fill="none" stroke="red" stroke-width="86.0775" d="M19858 19982c-761,-75 -1331,-93 -1711,-55"/>
   <path fill="none" stroke="red" stroke-width="86.0775" d="M19006 23631c-940,-240 -1411,-361 -1411,-361"/>
   <path fill="none" stroke="red" stroke-width="86.0775" d="M18519 23507c-344,548 -706,775 -1088,681"/>
   <path fill="none" stroke="red" stroke-width="86.0775" d="M19717 18990c-117,0 -211,107 -211,239 0,132 95,239 211,239 117,0 211,-107 211,-239 0,-132 -95,-239 -211,-239z"/>
   <path fill="none" stroke="red" stroke-width="86.0775" d="M22018 6022c-508,-102 -1010,-98 -1506,12"/>
   <path fill="none" stroke="red" stroke-width="86.0775" d="M22234 6669c-82,40 -124,59 -124,59 -433,-73 -946,-103 -1538,-87 -266,-203 -264,-355 5,-455 678,-127 1337,-57 1677,144"/>
   <path fill="none" stroke="red" stroke-width="86.0775" d="M22131 6290c-34,225 -41,371 -21,439"/>
   <path fill="none" stroke="red" stroke-width="86.0775" d="M21982 6217c-14,227 -51,386 -109,477"/>
  </g>
 </g>
</svg>
